<mxfile host="app.diagrams.net" modified="2024-04-09T20:13:46.704Z" agent="Mozilla/5.0 (X11; Linux x86_64) AppleWebKit/537.36 (KHTML, like Gecko) Chrome/119.0.0.0 Safari/537.36" etag="4Kk3sXpcJMHJGnVawTeH" version="24.2.3" type="device">
  <diagram name="Страница — 1" id="o52r-GsarHHjOpmkALcU">
    <mxGraphModel dx="1718" dy="461" grid="0" gridSize="10" guides="1" tooltips="1" connect="1" arrows="1" fold="1" page="0" pageScale="1" pageWidth="827" pageHeight="1169" math="0" shadow="0">
      <root>
        <mxCell id="0" />
        <mxCell id="1" parent="0" />
        <mxCell id="_VOfNN6SD-RIHp-R4A_J-3" style="edgeStyle=orthogonalEdgeStyle;curved=1;rounded=0;orthogonalLoop=1;jettySize=auto;html=1;entryX=1;entryY=0.5;entryDx=0;entryDy=0;fontSize=12;strokeColor=default;startArrow=none;startFill=0;endArrow=none;endFill=0;exitX=0.5;exitY=0;exitDx=0;exitDy=0;" edge="1" parent="1" source="_VOfNN6SD-RIHp-R4A_J-1" target="_VOfNN6SD-RIHp-R4A_J-2">
          <mxGeometry relative="1" as="geometry" />
        </mxCell>
        <mxCell id="_VOfNN6SD-RIHp-R4A_J-18" style="edgeStyle=orthogonalEdgeStyle;curved=1;rounded=0;orthogonalLoop=1;jettySize=auto;html=1;entryX=0;entryY=0.5;entryDx=0;entryDy=0;strokeColor=default;align=center;verticalAlign=middle;fontFamily=Helvetica;fontSize=12;fontColor=default;labelBackgroundColor=default;startSize=8;endArrow=none;endFill=0;endSize=8;exitX=0.5;exitY=0;exitDx=0;exitDy=0;" edge="1" parent="1" source="_VOfNN6SD-RIHp-R4A_J-1" target="_VOfNN6SD-RIHp-R4A_J-13">
          <mxGeometry relative="1" as="geometry" />
        </mxCell>
        <mxCell id="_VOfNN6SD-RIHp-R4A_J-1" value="&lt;font style=&quot;font-size: 17px;&quot;&gt;Служба обслуживания&lt;/font&gt;" style="rounded=1;whiteSpace=wrap;html=1;fillColor=#647687;fontColor=#ffffff;strokeColor=#314354;" vertex="1" parent="1">
          <mxGeometry x="-632" y="643" width="120" height="60" as="geometry" />
        </mxCell>
        <mxCell id="_VOfNN6SD-RIHp-R4A_J-10" style="edgeStyle=orthogonalEdgeStyle;rounded=0;orthogonalLoop=1;jettySize=auto;html=1;fontSize=12;startSize=8;endSize=8;curved=1;endArrow=none;endFill=0;entryX=1;entryY=0.5;entryDx=0;entryDy=0;" edge="1" parent="1" source="_VOfNN6SD-RIHp-R4A_J-2" target="_VOfNN6SD-RIHp-R4A_J-5">
          <mxGeometry relative="1" as="geometry" />
        </mxCell>
        <mxCell id="_VOfNN6SD-RIHp-R4A_J-11" style="edgeStyle=orthogonalEdgeStyle;rounded=0;orthogonalLoop=1;jettySize=auto;html=1;fontSize=12;startSize=8;endSize=8;curved=1;endArrow=none;endFill=0;" edge="1" parent="1" source="_VOfNN6SD-RIHp-R4A_J-2" target="_VOfNN6SD-RIHp-R4A_J-6">
          <mxGeometry relative="1" as="geometry" />
        </mxCell>
        <mxCell id="_VOfNN6SD-RIHp-R4A_J-12" style="edgeStyle=orthogonalEdgeStyle;rounded=0;orthogonalLoop=1;jettySize=auto;html=1;entryX=1;entryY=0.5;entryDx=0;entryDy=0;fontSize=12;startSize=8;endSize=8;curved=1;endArrow=none;endFill=0;" edge="1" parent="1" source="_VOfNN6SD-RIHp-R4A_J-2" target="_VOfNN6SD-RIHp-R4A_J-7">
          <mxGeometry relative="1" as="geometry" />
        </mxCell>
        <mxCell id="_VOfNN6SD-RIHp-R4A_J-16" style="edgeStyle=orthogonalEdgeStyle;curved=1;rounded=0;orthogonalLoop=1;jettySize=auto;html=1;entryX=1;entryY=0.5;entryDx=0;entryDy=0;fontSize=12;startSize=8;endSize=8;endArrow=none;endFill=0;" edge="1" parent="1" source="_VOfNN6SD-RIHp-R4A_J-2" target="_VOfNN6SD-RIHp-R4A_J-15">
          <mxGeometry relative="1" as="geometry" />
        </mxCell>
        <mxCell id="_VOfNN6SD-RIHp-R4A_J-2" value="&lt;font style=&quot;font-size: 17px;&quot;&gt;Работники&lt;/font&gt;" style="rounded=1;whiteSpace=wrap;html=1;fillColor=#f8cecc;strokeColor=#b85450;" vertex="1" parent="1">
          <mxGeometry x="-791" y="556" width="106" height="58" as="geometry" />
        </mxCell>
        <mxCell id="_VOfNN6SD-RIHp-R4A_J-5" value="ФИО" style="rounded=1;whiteSpace=wrap;html=1;fillColor=#f8cecc;strokeColor=#b85450;" vertex="1" parent="1">
          <mxGeometry x="-949" y="527" width="82" height="22" as="geometry" />
        </mxCell>
        <mxCell id="_VOfNN6SD-RIHp-R4A_J-6" value="ID" style="rounded=1;whiteSpace=wrap;html=1;fillColor=#f8cecc;strokeColor=#b85450;" vertex="1" parent="1">
          <mxGeometry x="-956" y="571.5" width="89" height="27" as="geometry" />
        </mxCell>
        <mxCell id="_VOfNN6SD-RIHp-R4A_J-7" value="Занимаемая должность" style="rounded=1;whiteSpace=wrap;html=1;fillColor=#f8cecc;strokeColor=#b85450;" vertex="1" parent="1">
          <mxGeometry x="-961.5" y="614" width="94.5" height="29" as="geometry" />
        </mxCell>
        <mxCell id="_VOfNN6SD-RIHp-R4A_J-28" style="edgeStyle=orthogonalEdgeStyle;curved=1;rounded=0;orthogonalLoop=1;jettySize=auto;html=1;entryX=0;entryY=0.5;entryDx=0;entryDy=0;strokeColor=default;align=center;verticalAlign=middle;fontFamily=Helvetica;fontSize=12;fontColor=default;labelBackgroundColor=default;startSize=8;endArrow=none;endFill=0;endSize=8;" edge="1" parent="1" source="_VOfNN6SD-RIHp-R4A_J-13" target="_VOfNN6SD-RIHp-R4A_J-19">
          <mxGeometry relative="1" as="geometry" />
        </mxCell>
        <mxCell id="_VOfNN6SD-RIHp-R4A_J-29" style="edgeStyle=orthogonalEdgeStyle;curved=1;rounded=0;orthogonalLoop=1;jettySize=auto;html=1;entryX=0;entryY=0.5;entryDx=0;entryDy=0;strokeColor=default;align=center;verticalAlign=middle;fontFamily=Helvetica;fontSize=12;fontColor=default;labelBackgroundColor=default;startSize=8;endArrow=none;endFill=0;endSize=8;" edge="1" parent="1" source="_VOfNN6SD-RIHp-R4A_J-13" target="_VOfNN6SD-RIHp-R4A_J-20">
          <mxGeometry relative="1" as="geometry" />
        </mxCell>
        <mxCell id="_VOfNN6SD-RIHp-R4A_J-30" style="edgeStyle=orthogonalEdgeStyle;curved=1;rounded=0;orthogonalLoop=1;jettySize=auto;html=1;entryX=0;entryY=0.5;entryDx=0;entryDy=0;strokeColor=default;align=center;verticalAlign=middle;fontFamily=Helvetica;fontSize=12;fontColor=default;labelBackgroundColor=default;startSize=8;endArrow=none;endFill=0;endSize=8;" edge="1" parent="1" source="_VOfNN6SD-RIHp-R4A_J-13" target="_VOfNN6SD-RIHp-R4A_J-21">
          <mxGeometry relative="1" as="geometry" />
        </mxCell>
        <mxCell id="_VOfNN6SD-RIHp-R4A_J-31" style="edgeStyle=orthogonalEdgeStyle;curved=1;rounded=0;orthogonalLoop=1;jettySize=auto;html=1;entryX=0;entryY=0.5;entryDx=0;entryDy=0;strokeColor=default;align=center;verticalAlign=middle;fontFamily=Helvetica;fontSize=12;fontColor=default;labelBackgroundColor=default;startSize=8;endArrow=none;endFill=0;endSize=8;" edge="1" parent="1" source="_VOfNN6SD-RIHp-R4A_J-13" target="_VOfNN6SD-RIHp-R4A_J-22">
          <mxGeometry relative="1" as="geometry" />
        </mxCell>
        <mxCell id="_VOfNN6SD-RIHp-R4A_J-32" style="edgeStyle=orthogonalEdgeStyle;curved=1;rounded=0;orthogonalLoop=1;jettySize=auto;html=1;entryX=0;entryY=0.25;entryDx=0;entryDy=0;strokeColor=default;align=center;verticalAlign=middle;fontFamily=Helvetica;fontSize=12;fontColor=default;labelBackgroundColor=default;startSize=8;endArrow=none;endFill=0;endSize=8;" edge="1" parent="1" source="_VOfNN6SD-RIHp-R4A_J-13" target="_VOfNN6SD-RIHp-R4A_J-24">
          <mxGeometry relative="1" as="geometry" />
        </mxCell>
        <mxCell id="_VOfNN6SD-RIHp-R4A_J-33" style="edgeStyle=orthogonalEdgeStyle;curved=1;rounded=0;orthogonalLoop=1;jettySize=auto;html=1;entryX=0;entryY=0.25;entryDx=0;entryDy=0;strokeColor=default;align=center;verticalAlign=middle;fontFamily=Helvetica;fontSize=12;fontColor=default;labelBackgroundColor=default;startSize=8;endArrow=none;endFill=0;endSize=8;" edge="1" parent="1" source="_VOfNN6SD-RIHp-R4A_J-13" target="_VOfNN6SD-RIHp-R4A_J-26">
          <mxGeometry relative="1" as="geometry" />
        </mxCell>
        <mxCell id="_VOfNN6SD-RIHp-R4A_J-13" value="&lt;font style=&quot;font-size: 15px;&quot;&gt;Транспорт&lt;/font&gt;" style="rounded=1;whiteSpace=wrap;html=1;fillColor=#dae8fc;strokeColor=#6c8ebf;" vertex="1" parent="1">
          <mxGeometry x="-456" y="564" width="102" height="42" as="geometry" />
        </mxCell>
        <mxCell id="_VOfNN6SD-RIHp-R4A_J-15" value="Статус" style="rounded=1;whiteSpace=wrap;html=1;fillColor=#f8cecc;strokeColor=#b85450;" vertex="1" parent="1">
          <mxGeometry x="-947" y="659" width="80" height="23" as="geometry" />
        </mxCell>
        <mxCell id="_VOfNN6SD-RIHp-R4A_J-19" value="Номер" style="rounded=1;whiteSpace=wrap;html=1;fontFamily=Helvetica;fontSize=12;labelBackgroundColor=none;fillColor=#dae8fc;strokeColor=#6c8ebf;" vertex="1" parent="1">
          <mxGeometry x="-309" y="430" width="83" height="30" as="geometry" />
        </mxCell>
        <mxCell id="_VOfNN6SD-RIHp-R4A_J-20" value="Название" style="rounded=1;whiteSpace=wrap;html=1;fontFamily=Helvetica;fontSize=12;labelBackgroundColor=none;fillColor=#dae8fc;strokeColor=#6c8ebf;" vertex="1" parent="1">
          <mxGeometry x="-309" y="489" width="83" height="30" as="geometry" />
        </mxCell>
        <mxCell id="_VOfNN6SD-RIHp-R4A_J-21" value="Тип" style="rounded=1;whiteSpace=wrap;html=1;fontFamily=Helvetica;fontSize=12;labelBackgroundColor=none;fillColor=#dae8fc;strokeColor=#6c8ebf;" vertex="1" parent="1">
          <mxGeometry x="-309" y="548" width="83" height="30" as="geometry" />
        </mxCell>
        <mxCell id="_VOfNN6SD-RIHp-R4A_J-22" value="Категория" style="rounded=1;whiteSpace=wrap;html=1;fontFamily=Helvetica;fontSize=12;labelBackgroundColor=none;fillColor=#dae8fc;strokeColor=#6c8ebf;" vertex="1" parent="1">
          <mxGeometry x="-309" y="607" width="83" height="30" as="geometry" />
        </mxCell>
        <mxCell id="_VOfNN6SD-RIHp-R4A_J-24" value="ID водителя" style="rounded=1;whiteSpace=wrap;html=1;fontFamily=Helvetica;fontSize=12;labelBackgroundColor=none;fillColor=#dae8fc;strokeColor=#6c8ebf;" vertex="1" parent="1">
          <mxGeometry x="-309" y="659" width="83" height="30" as="geometry" />
        </mxCell>
        <mxCell id="_VOfNN6SD-RIHp-R4A_J-26" value="Статус" style="rounded=1;whiteSpace=wrap;html=1;fontFamily=Helvetica;fontSize=12;labelBackgroundColor=none;fillColor=#dae8fc;strokeColor=#6c8ebf;" vertex="1" parent="1">
          <mxGeometry x="-309" y="717" width="83" height="30" as="geometry" />
        </mxCell>
        <mxCell id="_VOfNN6SD-RIHp-R4A_J-35" style="edgeStyle=orthogonalEdgeStyle;curved=1;rounded=0;orthogonalLoop=1;jettySize=auto;html=1;strokeColor=default;align=center;verticalAlign=middle;fontFamily=Helvetica;fontSize=12;fontColor=default;labelBackgroundColor=default;startSize=8;endArrow=none;endFill=0;endSize=8;entryX=0.592;entryY=0.03;entryDx=0;entryDy=0;entryPerimeter=0;" edge="1" parent="1" source="_VOfNN6SD-RIHp-R4A_J-34" target="_VOfNN6SD-RIHp-R4A_J-36">
          <mxGeometry relative="1" as="geometry">
            <mxPoint x="-462" y="1077.199951171875" as="targetPoint" />
          </mxGeometry>
        </mxCell>
        <mxCell id="_VOfNN6SD-RIHp-R4A_J-34" value="&lt;font style=&quot;font-size: 16px;&quot;&gt;Приоритет обслуживания&lt;/font&gt;" style="rounded=1;whiteSpace=wrap;html=1;fontFamily=Helvetica;fontSize=12;labelBackgroundColor=none;fillColor=#bac8d3;strokeColor=#23445d;" vertex="1" parent="1">
          <mxGeometry x="-769" y="956" width="120" height="60" as="geometry" />
        </mxCell>
        <mxCell id="_VOfNN6SD-RIHp-R4A_J-36" value="&lt;font style=&quot;font-size: 15px;&quot;&gt;Регистрационный&amp;nbsp;&lt;/font&gt;&lt;div style=&quot;font-size: 15px;&quot;&gt;&lt;font style=&quot;font-size: 15px;&quot;&gt;номер самолёта&lt;/font&gt;&lt;/div&gt;" style="rounded=1;whiteSpace=wrap;html=1;fontFamily=Helvetica;fontSize=12;labelBackgroundColor=none;fillColor=#bac8d3;strokeColor=#23445d;" vertex="1" parent="1">
          <mxGeometry x="-580" y="1085" width="144" height="56" as="geometry" />
        </mxCell>
        <mxCell id="_VOfNN6SD-RIHp-R4A_J-41" style="edgeStyle=orthogonalEdgeStyle;curved=1;rounded=0;orthogonalLoop=1;jettySize=auto;html=1;entryX=0;entryY=0.5;entryDx=0;entryDy=0;strokeColor=default;align=center;verticalAlign=middle;fontFamily=Helvetica;fontSize=12;fontColor=default;labelBackgroundColor=default;startSize=8;endArrow=none;endFill=0;endSize=8;" edge="1" parent="1" source="_VOfNN6SD-RIHp-R4A_J-38" target="_VOfNN6SD-RIHp-R4A_J-39">
          <mxGeometry relative="1" as="geometry" />
        </mxCell>
        <mxCell id="_VOfNN6SD-RIHp-R4A_J-42" style="edgeStyle=orthogonalEdgeStyle;curved=1;rounded=0;orthogonalLoop=1;jettySize=auto;html=1;entryX=0;entryY=0.5;entryDx=0;entryDy=0;strokeColor=default;align=center;verticalAlign=middle;fontFamily=Helvetica;fontSize=12;fontColor=default;labelBackgroundColor=default;startSize=8;endArrow=none;endFill=0;endSize=8;" edge="1" parent="1" source="_VOfNN6SD-RIHp-R4A_J-38" target="_VOfNN6SD-RIHp-R4A_J-40">
          <mxGeometry relative="1" as="geometry" />
        </mxCell>
        <mxCell id="_VOfNN6SD-RIHp-R4A_J-38" value="&lt;font style=&quot;font-size: 16px;&quot;&gt;Билет&lt;/font&gt;" style="rounded=1;whiteSpace=wrap;html=1;fontFamily=Helvetica;fontSize=12;labelBackgroundColor=none;fillColor=#e1d5e7;strokeColor=#9673a6;" vertex="1" parent="1">
          <mxGeometry x="-786" y="1290" width="107" height="33" as="geometry" />
        </mxCell>
        <mxCell id="_VOfNN6SD-RIHp-R4A_J-39" value="Категория билета" style="rounded=1;whiteSpace=wrap;html=1;fontFamily=Helvetica;fontSize=12;labelBackgroundColor=none;fillColor=#e1d5e7;strokeColor=#9673a6;" vertex="1" parent="1">
          <mxGeometry x="-628" y="1259" width="113" height="26" as="geometry" />
        </mxCell>
        <mxCell id="_VOfNN6SD-RIHp-R4A_J-40" value="Багаж, доступный к провозу" style="rounded=1;whiteSpace=wrap;html=1;fontFamily=Helvetica;fontSize=12;labelBackgroundColor=none;fillColor=#e1d5e7;strokeColor=#9673a6;" vertex="1" parent="1">
          <mxGeometry x="-632" y="1315" width="130" height="39" as="geometry" />
        </mxCell>
      </root>
    </mxGraphModel>
  </diagram>
</mxfile>
